<svg width="15" height="19" viewBox="0 0 15 19" fill="none" xmlns="http://www.w3.org/2000/svg">
<path d="M7.98047 11.7891L3.52734 11.7773L3.97266 9.24609L8.08594 9.25781C8.70312 9.25781 9.26562 9.15234 9.77344 8.94141C10.2891 8.72266 10.7148 8.40234 11.0508 7.98047C11.3867 7.55078 11.5977 7.01562 11.6836 6.375C11.7617 5.83594 11.7227 5.35547 11.5664 4.93359C11.418 4.50391 11.1602 4.16406 10.793 3.91406C10.4336 3.65625 9.97266 3.51562 9.41016 3.49219L6.02344 3.48047L3.50391 18H0.351562L3.30469 0.9375L9.50391 0.949219C10.5742 0.972656 11.5273 1.20313 12.3633 1.64062C13.207 2.07031 13.8555 2.68359 14.3086 3.48047C14.7617 4.26953 14.9414 5.22656 14.8477 6.35156C14.7461 7.58594 14.3672 8.60938 13.7109 9.42188C13.0547 10.2266 12.2227 10.8242 11.2148 11.2148C10.207 11.5977 9.12891 11.7891 7.98047 11.7891ZM11.168 16.5352C11.1602 16.043 11.3242 15.6328 11.6602 15.3047C11.9961 14.9766 12.4102 14.8125 12.9023 14.8125C13.3789 14.8047 13.7812 14.9531 14.1094 15.2578C14.4453 15.5547 14.6172 15.9453 14.625 16.4297C14.6328 16.9297 14.4648 17.3398 14.1211 17.6602C13.7852 17.9805 13.375 18.1406 12.8906 18.1406C12.4219 18.1484 12.0156 18.0039 11.6719 17.707C11.3359 17.4102 11.168 17.0195 11.168 16.5352Z" fill="#FBFCC1"/>
</svg>
